# xmcd
#
# Track frame offsets: 
#        150
#        21352
#        46676
#        60111
#        81570
#        100058
#        119369
#        136782
#        148775
#        169396
#
# Disc length: 2488 seconds
#
# Revision: 0
# Processed by: cddbd v1.5.2PL0 Copyright (c) Steve Scherf et al.
# Submitted via: ExactAudioCopyFreeDBPlugin 1.0
#
DISCID=8209b60a
DTITLE=Babajack - Running Man
DYEAR=2014
DGENRE=Blues
TTITLE0=Running Man
TTITLE1=Coming Home
TTITLE2=Breathe
TTITLE3=Rock n´ Roll Star
TTITLE4=Falling Hard
TTITLE5=Death Letter
TTITLE6=Every Day the Same
TTITLE7=Hammer and Tongs
TTITLE8=I´m Done
TTITLE9=Some People
EXTD=
EXTT0=
EXTT1=
EXTT2=
EXTT3=
EXTT4=
EXTT5=
EXTT6=
EXTT7=
EXTT8=
EXTT9=
PLAYORDER=
